<svg width="64" height="64" viewBox="0 0 64 64" fill="none" xmlns="http://www.w3.org/2000/svg">
<path d="M48 48C44.8355 51.1645 40.8037 53.3196 36.4144 54.1926C32.0251 55.0657 27.4755 54.6176 23.3409 52.905C19.2062 51.1924 15.6723 48.2922 13.186 44.5711C10.6997 40.8501 9.37258 36.4753 9.37258 32C9.37258 27.5247 10.6997 23.1499 13.186 19.4289C15.6723 15.7078 19.2062 12.8076 23.3409 11.095C27.4755 9.38238 32.0251 8.93428 36.4144 9.80736C40.8037 10.6804 44.8355 12.8355 48 16L32 32L48 48Z" fill="#C7644B"/>
<circle cx="31.896" cy="31.8959" r="13.9545" fill="#ECE53C"/>
<path fill-rule="evenodd" clip-rule="evenodd" d="M26.7943 25.1001C26.8682 24.9381 27.0478 24.8724 27.1955 24.9534L27.4314 25.0828H27.8093H28.5569C28.722 25.0828 28.8559 25.2297 28.8559 25.4108C28.8559 25.592 28.722 25.7389 28.5569 25.7389H28.2428L29.3719 28.9984C29.3821 28.9946 29.3925 28.9915 29.4031 28.989L34.9986 27.6599L34.116 25.5475C34.0737 25.4461 34.0812 25.328 34.136 25.234C34.1909 25.14 34.2855 25.083 34.3872 25.0828L37.003 25.0767C37.5046 25.0755 37.9762 25.4545 37.9762 26.0805C37.9762 26.6342 37.5712 27.2074 37.005 27.2074H36.481C36.3159 27.2074 36.182 27.0605 36.182 26.8793C36.182 26.6982 36.3159 26.5513 36.481 26.5513H37.005C37.1812 26.5513 37.3781 26.3411 37.3781 26.0805C37.3781 25.8908 37.2461 25.7322 37.0043 25.7328L34.8534 25.7378L35.6918 27.7445C35.6962 27.7539 35.7003 27.7636 35.7039 27.7735L36.2087 28.9817C36.6656 28.7939 37.1604 28.6912 37.6771 28.6912C39.9892 28.6912 41.8635 30.7474 41.8635 33.2838C41.8635 35.8202 39.9892 37.8764 37.6771 37.8764C35.3651 37.8764 33.4908 35.8202 33.4908 33.2838C33.4908 31.5474 34.3692 30.036 35.6651 29.2554L35.3563 28.5161L31.7476 33.4871C31.5704 33.361 31.3608 33.2849 31.1355 33.2772L34.6693 28.4094L29.6021 29.613L29.589 29.6251L30.865 33.3089C30.9405 33.2925 31.0187 33.2839 31.0986 33.2839C31.6559 33.2839 32.1242 33.7021 32.257 34.268H32.5937C32.7589 34.268 32.8927 34.4149 32.8927 34.5961C32.8927 34.7772 32.7589 34.9241 32.5937 34.9241H32.257C32.1242 35.4901 31.6559 35.9082 31.0986 35.9082C30.438 35.9082 29.9025 35.3208 29.9025 34.5961C29.9025 34.1952 30.0663 33.8364 30.3245 33.5957L29.104 30.0721L28.5215 30.609C29.0143 31.3623 29.3044 32.2859 29.3044 33.2838C29.3044 33.3998 29.3005 33.5149 29.2928 33.6287L30.1537 33.7826C30.0282 33.9592 29.9429 34.172 29.9131 34.4043L29.2061 34.2779C28.792 36.3365 27.119 37.8764 25.1181 37.8764C22.8061 37.8764 20.9318 35.8202 20.9318 33.2838C20.9318 30.7474 22.8061 28.6912 25.1181 28.6912C26.3054 28.6912 27.3773 29.2335 28.1392 30.1045L28.879 29.4226L27.6031 25.7389H27.3608C27.3144 25.7389 27.2686 25.727 27.2271 25.7042L26.928 25.5402C26.7803 25.4592 26.7205 25.2622 26.7943 25.1001ZM31.6166 34.268H31.0986C30.9334 34.268 30.7996 34.4149 30.7996 34.5961C30.7996 34.7772 30.9334 34.9241 31.0986 34.9241H31.6166C31.5132 35.1202 31.32 35.2522 31.0986 35.2522C30.7683 35.2522 30.5005 34.9584 30.5005 34.5961C30.5005 34.2337 30.7683 33.94 31.0986 33.94C31.32 33.94 31.5132 34.0719 31.6166 34.268ZM25.1181 29.3473C26.1216 29.3473 27.0289 29.7992 27.6801 30.5277L25.019 32.9806C24.8232 33.161 24.9109 33.5104 25.1633 33.5555L28.6146 34.1723C28.2475 35.9184 26.8214 37.2203 25.1181 37.2203C23.1363 37.2203 21.5298 35.4579 21.5298 33.2838C21.5298 31.1097 23.1363 29.3473 25.1181 29.3473ZM25.9028 33.0229L28.6999 33.5228C28.7042 33.4437 28.7064 33.364 28.7064 33.2838C28.7064 32.4466 28.4682 31.6705 28.0621 31.0325L25.9028 33.0229ZM35.9151 29.8538C34.8249 30.5293 34.0888 31.8122 34.0888 33.2838C34.0888 35.4579 35.6954 37.2203 37.6771 37.2203C39.6589 37.2203 41.2654 35.4579 41.2654 33.2838C41.2654 31.1097 39.6589 29.3473 37.6771 29.3473C37.2494 29.3473 36.8391 29.4294 36.4587 29.5801L37.949 33.1472C38.0178 33.3119 37.9519 33.5066 37.8017 33.5821C37.6516 33.6576 37.4741 33.5853 37.4053 33.4206L35.9151 29.8538Z" fill="#FAFAFA"/>
</svg>
